# xmcd CD database file
#
# Track frame offsets:
#	150
#	25433
#	46284
#	68448
#	89730
#	112058
#	127126
#	156186
#	201164
#
# Disc length: 3007 seconds
#
# Revision: 2
# Processed by: cddbd v1.5.2PL0 Copyright (c) Steve Scherf et al.
# Submitted via: CDex 1.51
#
DISCID=810bbd09
DTITLE=B.B. KING - Completely Well
DYEAR=1969
DGENRE=Blues
TTITLE0=So Excited
TTITLE1=No Good
TTITLE2=You're Losin' Me
TTITLE3=What Happened
TTITLE4=Confessin' The Blues
TTITLE5=Key To My Kingdom
TTITLE6=Cryin' Won't Help You Now
TTITLE7=You're Mean
TTITLE8=The Thrill Is Gone
EXTD=YEAR: 1969
EXTT0=
EXTT1=
EXTT2=
EXTT3=
EXTT4=
EXTT5=
EXTT6=
EXTT7=
EXTT8=
PLAYORDER=
